<svg width="11" height="11" viewBox="0 0 11 11" fill="none" xmlns="http://www.w3.org/2000/svg">
<g clip-path="url(#clip0_2_815)">
<path d="M2.06044 3.4104C1.62583 3.72069 1.27345 4.05247 1.00344 4.3449C0.392979 5.00601 0.392979 5.99399 1.00344 6.65509C1.79516 7.51254 3.29487 8.70833 5.50001 8.70833C6.09392 8.70833 6.63663 8.62161 7.12814 8.47811L6.36603 7.71599C6.09291 7.76458 5.80425 7.79166 5.50001 7.79166C3.6515 7.79166 2.37799 6.7925 1.6769 6.03322C1.39071 5.7233 1.39071 5.2767 1.6769 4.96677C1.94221 4.67944 2.2895 4.35776 2.7189 4.06887L2.06044 3.4104Z" fill="#BDBDBD"/>
<path d="M3.91094 5.26094C3.89929 5.33895 3.89325 5.41874 3.89325 5.50001C3.89325 6.38597 4.61146 7.10417 5.49742 7.10417C5.57864 7.10417 5.65848 7.09812 5.73649 7.08648L3.91094 5.26094Z" fill="#BDBDBD"/>
<path d="M7.08866 5.70492L5.29254 3.90879C5.35964 3.90024 5.42802 3.89583 5.49746 3.89583C6.38342 3.89583 7.10163 4.61404 7.10163 5.49999C7.10163 5.56943 7.09723 5.63782 7.08866 5.70492Z" fill="#BDBDBD"/>
<path d="M8.30127 6.91754C8.72137 6.63218 9.06196 6.31607 9.32312 6.03323C9.6093 5.7233 9.6093 5.27671 9.32312 4.96678C8.62205 4.20751 7.34853 3.20834 5.50002 3.20834C5.20642 3.20834 4.92734 3.23354 4.66274 3.27899L3.89807 2.51434C4.38265 2.37536 4.91666 2.29167 5.50002 2.29167C7.70516 2.29167 9.20487 3.48749 9.99659 4.3449C10.607 5.00601 10.607 5.994 9.99659 6.6551C9.73067 6.94311 9.38486 7.26931 8.95925 7.57552L8.30127 6.91754Z" fill="#BDBDBD"/>
<path d="M0.920255 1.56845C0.741263 1.38946 0.741263 1.09926 0.920255 0.920271C1.09924 0.741278 1.38945 0.741278 1.56844 0.920271L10.0835 9.43534C10.2625 9.61432 10.2625 9.90454 10.0835 10.0835C9.90451 10.2625 9.61429 10.2625 9.43532 10.0835L0.920255 1.56845Z" fill="#BDBDBD"/>
</g>
<defs>
<clipPath id="clip0_2_815">
<rect width="11" height="11" fill="white"/>
</clipPath>
</defs>
</svg>
