<svg width="11" height="11" viewBox="0 0 11 11" fill="none" xmlns="http://www.w3.org/2000/svg">
<path fill-rule="evenodd" clip-rule="evenodd" d="M5.49742 7.10418C6.38338 7.10418 7.10159 6.38597 7.10159 5.50001C7.10159 4.61405 6.38338 3.89584 5.49742 3.89584C4.61146 3.89584 3.89325 4.61405 3.89325 5.50001C3.89325 6.38597 4.61146 7.10418 5.49742 7.10418ZM5.49742 6.18494C5.11916 6.18494 4.81249 5.87827 4.81249 5.50001C4.81249 5.12175 5.11916 4.81508 5.49742 4.81508C5.87568 4.81508 6.18235 5.12175 6.18235 5.50001C6.18235 5.87827 5.87568 6.18494 5.49742 6.18494Z" fill="#BDBDBD"/>
<path fill-rule="evenodd" clip-rule="evenodd" d="M5.50001 2.29166C3.29487 2.29166 1.79516 3.48747 1.00344 4.34489C0.392979 5.006 0.392979 5.99398 1.00344 6.65508C1.79516 7.51253 3.29487 8.70832 5.50001 8.70832C7.70514 8.70832 9.20485 7.51253 9.99658 6.65508C10.607 5.99398 10.607 5.006 9.99658 4.34489C9.20485 3.48747 7.70514 2.29166 5.50001 2.29166ZM1.6769 4.96676C2.37799 4.2075 3.6515 3.20832 5.50001 3.20832C7.34851 3.20832 8.62204 4.2075 9.3231 4.96676C9.60929 5.27669 9.60929 5.72329 9.3231 6.03321C8.62204 6.79249 7.34851 7.79166 5.50001 7.79166C3.6515 7.79166 2.37799 6.79249 1.6769 6.03321C1.39071 5.72329 1.39071 5.27669 1.6769 4.96676Z" fill="#BDBDBD"/>
</svg>
