<svg width="11" height="11" viewBox="0 0 11 11" fill="none" xmlns="http://www.w3.org/2000/svg">
<path d="M11 0.916667C11 0.730469 10.8854 0.565756 10.7207 0.494141C10.5488 0.422526 10.3483 0.458333 10.2194 0.594401L9.28841 1.51823C8.27865 0.565756 6.91081 0 5.5 0C2.4707 0 0 2.4707 0 5.5C0 8.5293 2.4707 11 5.5 11C7.13997 11 8.68685 10.2767 9.73242 9.01628C9.80404 8.92318 9.80404 8.78711 9.7181 8.70833L8.73698 7.72005C8.68685 7.67708 8.6224 7.6556 8.55794 7.6556C8.49349 7.66276 8.42904 7.69141 8.39323 7.74154C7.69141 8.65104 6.63867 9.16667 5.5 9.16667C3.48047 9.16667 1.83333 7.51953 1.83333 5.5C1.83333 3.48047 3.48047 1.83333 5.5 1.83333C6.43815 1.83333 7.32617 2.19141 7.99935 2.81445L7.01107 3.80273C6.875 3.93164 6.83919 4.13216 6.91081 4.29688C6.98242 4.46875 7.14714 4.58333 7.33333 4.58333H10.5417C10.7923 4.58333 11 4.37565 11 4.125V0.916667Z" fill="#BDBDBD"/>
</svg>
