<svg width="800" height="800" viewBox="0 0 800 800" fill="none" xmlns="http://www.w3.org/2000/svg">
<path d="M646.172 610.938L591.25 629.141C592.5 633.125 593.125 637.344 593.125 641.719C593.125 647.734 591.875 653.437 589.609 658.672L642.969 681.016C648.125 668.984 651.016 655.703 651.016 641.719C651.016 630.938 649.297 620.625 646.172 610.938Z" fill="white"/>
<path d="M534.297 602.969L511.953 549.609C485.469 560.859 464.844 583.281 455.859 610.937L510.781 629.141C514.453 617.344 523.125 607.812 534.297 602.969ZM591.328 629.062L646.25 610.859C636.484 580.625 612.734 556.641 582.578 546.641L564.375 601.562C577.188 605.859 587.266 616.172 591.328 629.062ZM512.344 658.594L458.984 680.937C469.219 704.844 488.438 723.906 512.422 733.984L534.766 680.625C524.766 676.484 516.719 668.516 512.344 658.594ZM563.828 681.875L582.031 736.719C609.531 727.734 631.719 707.266 643.047 680.937L589.687 658.594C584.844 669.609 575.469 678.125 563.828 681.875Z" fill="#FFACC2"/>
<path d="M551.016 599.453C555.703 599.453 560.156 600.234 564.297 601.641L582.5 546.719C572.578 543.438 562.031 541.641 551.016 541.641C537.109 541.641 523.906 544.453 511.875 549.609L534.219 602.969C539.375 600.703 545.078 599.453 551.016 599.453ZM551.016 683.828C545.312 683.828 539.844 682.656 534.844 680.625L512.5 733.984C524.375 738.906 537.344 741.719 551.016 741.719C561.875 741.719 572.266 740 582.031 736.797L563.828 681.875C559.844 683.125 555.469 683.828 551.016 683.828ZM508.828 641.641C508.828 637.266 509.531 633.047 510.703 629.063L455.859 610.938C452.734 620.625 451.016 630.938 451.016 641.719C451.016 655.625 453.906 668.906 459.062 681.016L512.422 658.672C510.078 653.437 508.828 647.656 508.828 641.641Z" fill="white"/>
<path d="M652.891 743.203H143.047C107.969 743.203 79.2188 714.453 79.2188 679.375V678.984C79.2188 673.047 84.0625 668.203 90 668.203H705.937C711.875 668.203 716.719 673.047 716.719 678.984V679.375C716.719 714.531 687.969 743.203 652.891 743.203Z" fill="#DAE5FF"/>
<path d="M399.453 74.5312C348.281 94.6875 301.406 123.438 260.703 159.063L399.453 196.25V74.5312Z" fill="#FFACC2"/>
<path d="M97.8906 517.422C97.8906 551.484 101.484 584.609 108.281 616.641H399.453V506.25L106.328 427.734C100.781 456.797 97.8906 486.719 97.8906 517.422Z" fill="#FFEB4D"/>
<path d="M185.703 241.953L399.453 299.219V196.25L260.703 159.062C232.578 183.594 207.422 211.406 185.703 241.953Z" fill="#F7D4FF"/>
<path d="M135.391 331.953L399.453 402.734V299.766L185.391 242.422C165.625 270.156 148.828 300.234 135.391 331.953Z" fill="#DAE5FF"/>
<path d="M135.391 331.953C122.5 362.344 112.656 394.453 106.328 427.734L399.453 506.25V402.734L135.391 331.953Z" fill="#C0FCD0"/>
<path d="M392.656 84.375C349.922 102.344 310.312 126.406 274.531 156.094L331.406 171.328C345.625 164.453 385.469 122.969 392.656 84.375ZM159.063 520.547C159.063 506.562 155.234 476.484 160.469 448.438L112.109 435.469C107.422 462.344 105 489.844 105 517.344C105 548.594 108.125 579.844 114.219 610.313H134.687C152.187 585.391 159.063 547.109 159.063 520.547ZM312.656 179.219L263.125 165.937C238.594 187.656 216.406 211.953 196.953 238.203L242.578 250.391C243.516 235.703 245.703 222.344 249.531 212.031C258.594 187.734 283.359 190 312.656 179.219ZM144.766 327.813L217.969 347.422C223.047 343.75 241.797 333.594 241.797 263.75L188.75 249.531C171.641 274.219 156.875 300.469 144.766 327.813ZM162.969 436.25C165.469 425.078 159.609 390.391 203.75 356.562L139.844 339.453C128.75 366.484 120.234 394.609 114.375 423.203L162.969 436.25Z" fill="white"/>
<path d="M722.969 678.672V678.281C722.969 668.906 715.312 661.25 705.937 661.25H655.469C656.641 654.844 657.266 648.359 657.266 641.719C657.266 630.547 655.547 619.609 652.109 609.062C641.719 576.953 616.484 551.484 584.453 540.859C573.672 537.266 562.422 535.469 551.016 535.469C536.641 535.469 522.656 538.281 509.453 543.906C503.203 546.563 497.344 549.766 491.797 553.516L406.328 194.922C406.25 194.609 406.172 194.297 406.016 193.984V76.25C406.016 75.5469 405.937 74.9219 405.703 74.2969C405.625 72.2656 404.609 70.4688 402.969 69.2969C401.25 68.125 399.062 67.8906 397.187 68.6719C345.703 88.9063 298.437 117.734 256.562 154.297C228.047 179.219 202.5 207.422 180.625 238.281C180.547 238.359 180.547 238.437 180.469 238.516C180.391 238.594 180.391 238.672 180.312 238.75C160.234 267.109 143.203 297.656 129.687 329.531C116.484 360.625 106.562 393.281 100.234 426.563C94.5312 456.328 91.7187 486.875 91.7187 517.422C91.7187 551.25 95.2344 585.078 102.187 617.969C102.812 620.859 105.312 622.891 108.281 622.891H393.516V661.25H90C80.625 661.25 72.9687 668.906 72.9687 678.281V678.672C72.9687 702.969 85.3906 724.453 104.297 737.031H58.0469C54.6094 737.031 51.7969 739.844 51.7969 743.281C51.7969 746.719 54.6094 749.531 58.0469 749.531H701.797C705.234 749.531 708.047 746.719 708.047 743.281C708.047 739.844 705.234 737.031 701.797 737.031H691.641C710.547 724.453 722.969 702.969 722.969 678.672ZM644.766 641.641C644.766 648.281 644.062 654.766 642.734 661.172H612.031L597.578 655.078C598.828 650.703 599.453 646.25 599.453 641.641C599.453 638.828 599.219 635.938 598.75 633.203L624.844 624.531L641.953 618.828C643.828 626.328 644.766 633.984 644.766 641.641ZM586.406 554.844C609.922 564.453 628.75 583.359 638.125 607.031L600.234 619.531L594.922 621.328C590.234 611.172 582.109 602.969 572.031 598.125L586.406 554.844ZM586.953 641.641C586.953 646.641 585.937 651.484 583.906 656.094C583.125 657.891 582.187 659.609 581.172 661.172H520.859C519.766 659.531 518.828 657.812 518.047 656.094C516.016 651.562 515 646.641 515 641.641C515 637.969 515.547 634.375 516.641 630.937C519.766 620.937 527.031 612.812 536.719 608.672C541.25 606.719 546.016 605.703 551.016 605.703C554.844 605.703 558.672 606.328 562.344 607.578C573.281 611.25 581.875 619.922 585.312 630.937C586.406 634.375 586.953 638.047 586.953 641.641ZM551.016 547.891C558.984 547.891 566.875 548.906 574.531 550.859L560.234 594.063C557.187 593.438 554.141 593.203 551.016 593.203C546.484 593.203 542.031 593.828 537.734 595.078L520.156 553.125C530.078 549.688 540.391 547.891 551.016 547.891ZM491.484 569.219C491.719 569.062 491.875 568.906 492.109 568.75C497.187 564.609 502.734 561.016 508.672 558.047L526.25 600.078C517.812 605.078 511.172 612.5 507.031 621.328L463.906 607.031C469.766 592.188 479.375 579.219 491.484 569.219ZM504.453 655.156L490 661.25H459.297C457.969 654.844 457.266 648.359 457.266 641.719C457.266 633.984 458.203 626.328 460.078 618.906L494.453 630.234L503.359 633.203C502.891 636.016 502.656 638.828 502.656 641.641C502.578 646.25 503.203 650.781 504.453 655.156ZM393.203 610.391H113.359C107.266 579.922 104.141 548.672 104.141 517.422C104.141 489.922 106.562 462.422 111.25 435.547L393.203 511.094V610.391ZM393.203 498.125L113.594 423.203C119.453 394.609 127.969 366.406 139.062 339.453L393.203 407.578V498.125ZM393.203 394.609L331.016 377.969L143.984 327.813C156.094 300.469 170.859 274.141 187.969 249.531L393.203 304.531V394.609ZM393.203 291.094L196.094 238.203C215.547 211.875 237.813 187.656 262.266 165.859L385.234 198.828L393.203 200.938V291.094ZM393.203 188.047L360 179.141L273.75 156.016C309.844 126.016 349.922 101.719 393.125 83.75V188.047H393.203ZM406.016 247.5L480.937 561.797C466.641 574.297 455.859 590.547 449.922 608.984C446.484 619.531 444.766 630.547 444.766 641.641C444.766 648.281 445.391 654.766 446.562 661.172H406.016V247.5ZM652.891 736.25H143.047C111.328 736.25 85.4687 710.391 85.4687 678.672V678.281C85.4687 675.781 87.5 673.75 90 673.75H705.937C708.437 673.75 710.469 675.781 710.469 678.281V678.672C710.469 710.391 684.609 736.25 652.891 736.25Z" fill="#9A2D2F"/>
</svg>
